<svg id="Layer_1" xmlns="http://www.w3.org/2000/svg" viewBox="0 0 255.1 155.9"><style>.st0{fill:#b68b70}</style><path id="XMLID_28_" class="st0" d="M50.2 91V53.6h10.7c3.9 0 7.3 2 8.5 5.5L81.5 91h14l-14-36.7c-.6-2.8-5-13.1-17.2-13.1H37.7V91h12.5z"/><path id="XMLID_27_" class="st0" d="M205.7 41.2v37.4H195c-4.1 0-7.2-2.5-8.5-5.5l-12.1-31.9h-14l14 36.7c1.5 4.9 6 13.1 17.2 13.1h26.6V41.2h-12.5z"/><path id="XMLID_26_" class="st0" d="M121.2 91L108.2 91 103.5 78.5 116.4 78.5z"/><path id="XMLID_25_" class="st0" d="M153.3 80.3s-13-34.4-13.2-34.8c-1.7-2.7-4.3-4.5-7.9-4.4h-10.9s4.3 3.1 7 10.7c0 0 12.4 32.8 12.7 33.5 1.3 3.5 4.4 5.8 7.3 5.8h12.1c-.1-.1-4.4-3.3-7.1-10.8"/><path class="st0" d="M68.4 109.1c0 .8-.1 1.4-.3 2-.2.6-.4 1.1-.8 1.5-.3.4-.7.7-1.2.9-.5.2-1 .3-1.6.3-.5 0-.9 0-1.3-.1s-.7-.2-1-.3V105c.3-.1.6-.3 1-.3.4-.1.8-.1 1.3-.1.6 0 1.1.1 1.6.3.5.2.9.5 1.2.9.3.4.6.9.8 1.5.2.3.3 1 .3 1.8m-1.4 0c0-.6-.1-1.1-.2-1.6-.1-.4-.3-.8-.5-1.1-.2-.3-.5-.5-.7-.6-.3-.1-.6-.2-.9-.2h-.6c-.2 0-.3.1-.5.1v6.6c.1.1.2.1.4.1h.6c.3 0 .6-.1.9-.2.3-.1.5-.3.7-.6.2-.3.4-.6.5-1.1.3-.3.3-.8.3-1.4m7.4-4.2c0 .2-.1.4-.2.6-.2.1-.3.2-.5.2s-.4-.1-.5-.2c-.2-.1-.2-.3-.2-.6 0-.2.1-.4.2-.5.2-.2.3-.2.5-.2s.4.1.5.2c.1.1.2.3.2.5m-1.4 2h1.3v6.7H73v-6.7zm11.6 6.7c0 .9-.2 1.6-.7 2.1-.5.5-1.2.7-2 .7-.5 0-.9 0-1.3-.1s-.7-.2-1-.4l.4-1.1c.2.1.5.2.8.3.3.1.7.1 1 .1.5 0 .9-.1 1.2-.4.3-.3.4-.7.4-1.2v-.5c-.2.1-.4.1-.6.2-.2.1-.5.1-.7.1-.4 0-.8-.1-1.1-.2-.3-.1-.6-.4-.9-.6-.2-.3-.4-.6-.6-1-.1-.4-.2-.9-.2-1.4 0-.6.1-1.1.2-1.5.2-.4.4-.8.7-1.1.3-.3.6-.5 1-.6.4-.1.8-.2 1.3-.2.4 0 .8 0 1.2.1.4.1.7.2 1 .3v6.4zm-1.3-5.6c-.1 0-.2-.1-.4-.1s-.4-.1-.5-.1c-.3 0-.5 0-.7.1-.2.1-.4.2-.6.4-.2.2-.3.4-.4.7-.1.3-.1.6-.1 1 0 .7.2 1.3.5 1.7.3.4.7.5 1.2.5.2 0 .4 0 .6-.1.2 0 .4-.1.5-.2V108zm7.8-3.1c0 .2-.1.4-.2.6-.1.1-.3.2-.5.2s-.4-.1-.5-.2c-.1-.1-.2-.3-.2-.6 0-.2.1-.4.2-.5.2-.2.3-.2.5-.2s.4.1.5.2c.2.1.2.3.2.5m-1.4 2H91v6.7h-1.3v-6.7z"/><path id="XMLID_16_" class="st0" d="M98.9 113.7h-.5c-.6 0-1-.2-1.3-.5-.3-.3-.5-.8-.5-1.5v-3.8h-.9v-1h.9v-1.6l1.3-.4v2h1.3v1h-1.3v3.7c0 .3.1.5.3.7.2.1.4.2.6.2h.2c.1 0 .1 0 .2-.1v1.1c-.1.1-.2.1-.3.2"/><path class="st0" d="M108.7 113.3c-.2.1-.6.2-1 .3-.4.1-.9.1-1.3.1-.9 0-1.6-.2-2.1-.6-.5-.4-.7-.9-.7-1.6 0-.5.1-.8.3-1.1.2-.3.5-.5.9-.7.4-.2.8-.3 1.2-.4.5-.1.9-.1 1.4-.1v-.4c0-.4-.1-.7-.4-.9-.2-.2-.6-.3-1-.3-.3 0-.6 0-1 .1-.3.1-.6.2-.8.3l-.3-.9c.3-.1.6-.2 1-.3.4-.1.8-.1 1.3-.1.4 0 .7 0 1 .1.3.1.6.2.8.4.2.2.4.4.5.7.1.3.2.6.2 1.1v4.3zm-1.2-3.1c-.3 0-.6 0-1 .1-.3 0-.6.1-.9.2-.2.1-.4.2-.6.4-.1.2-.2.4-.2.7 0 .4.1.6.4.8.3.2.6.3 1.1.3.2 0 .4 0 .6-.1.2 0 .4-.1.5-.1v-2.3z"/><path id="XMLID_13_" class="st0" d="M113.9 103.8H115.2V113.6H113.9z"/><path id="XMLID_12_" class="st0" d="M130.6 113.6c-.3.1-.7.1-1.1.1-.5 0-.9-.1-1.3-.3-.4-.2-.8-.5-1.1-.9-.3-.4-.6-.9-.7-1.5-.2-.6-.3-1.3-.3-2.1s.1-1.5.3-2.1c.2-.6.4-1.1.7-1.5.3-.4.7-.7 1.1-.9.4-.2.9-.3 1.3-.3s.7 0 1.1.1c.3.1.6.2.8.3l-.4 1.1c-.1-.1-.3-.2-.5-.3-.2-.1-.5-.1-.7-.1-.3 0-.6.1-.9.2-.3.1-.5.4-.7.6-.2.3-.3.6-.5 1.1-.1.4-.2.9-.2 1.5s.1 1.1.2 1.5.3.8.5 1.1c.2.3.4.5.7.6.3.1.5.2.9.2.3 0 .5 0 .7-.1.2-.1.4-.2.5-.3l.4 1.2c-.3.6-.5.7-.8.8"/><path id="XMLID_11_" class="st0" d="M139.1 107.9c-.2 0-.4-.1-.6-.1h-.6c-.2 0-.3.1-.5.1v5.6h-1.3v-6.4c.3-.1.7-.3 1.1-.3.4-.1.9-.1 1.4-.1h.7l-.2 1.2z"/><path class="st0" d="M149.3 110.2l-4.3.6c.1.6.3 1.1.6 1.4.3.3.8.5 1.4.5.3 0 .6 0 1-.1.3-.1.6-.2.8-.3l.4 1c-.3.1-.6.3-1 .3-.4.1-.8.1-1.3.1s-1-.1-1.4-.2c-.4-.2-.7-.4-1-.7-.3-.3-.5-.7-.6-1.1-.1-.4-.2-.9-.2-1.5 0-.5.1-1 .2-1.4.1-.4.3-.8.6-1.1.2-.3.6-.5.9-.7.4-.2.8-.3 1.2-.3.8 0 1.5.3 2 .8s.7 1.3.7 2.2v.5zm-1.3-.7c0-.6-.1-1-.4-1.3-.3-.3-.6-.4-1.1-.4-.5 0-.9.2-1.2.6-.3.4-.5.9-.5 1.6l3.2-.5zm10.9 3.8c-.2.1-.6.2-1 .3-.4.1-.9.1-1.3.1-.9 0-1.6-.2-2.1-.6-.5-.4-.7-.9-.7-1.6 0-.5.1-.8.3-1.1.2-.3.5-.5.9-.7.4-.2.8-.3 1.2-.4.5-.1.9-.1 1.4-.1v-.4c0-.4-.1-.7-.4-.9-.2-.2-.6-.3-1-.3-.3 0-.6 0-1 .1-.3.1-.6.2-.8.3l-.3-.9c.3-.1.6-.2 1-.3.4-.1.8-.1 1.3-.1.4 0 .7 0 1 .1.3.1.6.2.8.4.2.2.4.4.5.7.1.3.2.6.2 1.1v4.3zm-1.2-3.1c-.3 0-.6 0-1 .1-.3 0-.6.1-.9.2-.2.1-.4.2-.6.4-.1.2-.2.4-.2.7 0 .4.1.6.4.8.3.2.6.3 1.1.3.2 0 .4 0 .6-.1.2 0 .4-.1.5-.1v-2.3z"/><path id="XMLID_6_" class="st0" d="M166.7 113.7h-.5c-.6 0-1-.2-1.3-.5-.3-.3-.5-.8-.5-1.5v-3.8h-.9v-1h.9v-1.6l1.3-.4v2h1.3v1h-1.3v3.7c0 .3.1.5.3.7.2.1.4.2.6.2h.2c.1 0 .1 0 .2-.1v1.1c0 .1-.1.1-.3.2"/><path class="st0" d="M173.3 104.9c0 .2-.1.4-.2.6-.2.1-.3.2-.5.2s-.4-.1-.5-.2c-.2-.1-.2-.3-.2-.6 0-.2.1-.4.2-.5.1-.2.3-.2.5-.2s.4.1.5.2c.1.1.2.3.2.5m-1.4 2h1.3v6.7h-1.3v-6.7z"/><path id="XMLID_3_" class="st0" d="M181.7 113.6h-1.5l-2.3-6.7h1.5l1.4 4.5c0 .1.1.3.1.4 0 .1.1.2.1.3 0 .1.1.2.1.3 0-.1 0-.2.1-.3 0-.1 0-.2.1-.3 0-.1.1-.3.1-.4l1.4-4.5h1.5l-2.6 6.7z"/><path class="st0" d="M193.6 110.2l-4.3.6c.1.6.3 1.1.6 1.4.3.3.8.5 1.4.5.3 0 .6 0 1-.1.3-.1.6-.2.8-.3l.4 1c-.3.1-.6.3-1 .3-.4.1-.8.1-1.3.1s-1-.1-1.4-.2c-.4-.2-.7-.4-1-.7-.3-.3-.5-.7-.6-1.1-.1-.4-.2-.9-.2-1.5 0-.5.1-1 .2-1.4.1-.4.3-.8.6-1.1.2-.3.6-.5.9-.7.4-.2.8-.3 1.2-.3.8 0 1.5.3 2 .8s.7 1.3.7 2.2v.5zm-1.2-.7c0-.6-.1-1-.4-1.3-.3-.3-.6-.4-1.1-.4-.5 0-.9.2-1.2.6-.3.4-.5.9-.5 1.6l3.2-.5z"/></svg>